HIERARCHY
ROOT Base
{
    OFFSET 0.00 0.00 0.00 	
    CHANNELS 6 Xposition Yposition Zposition Zrotation Yrotation Xrotation
    JOINT LeftShoulder
    {
        OFFSET 0.00 0.00 0.00
        CHANNELS 3 Zrotation Yrotation Xrotation
        JOINT LeftElbow
        {
            OFFSET 0.14763221144676208 0.010762348771095276 0.0019505452364683151
            CHANNELS 3 Zrotation Yrotation Xrotation
            JOINT RightWrist
            {
                OFFSET 0.05613622069358826 0.19757115840911865 -0.057521444745361805
                CHANNELS 3 Zrotation Yrotation Xrotation
                    End Site
                    {
                        OFFSET 0.12612250447273254 -0.11068940162658691 -0.17253861483186483
                    }
            }
        }
    }
    JOINT RightShoulder
    {
        OFFSET 0.00 0.00 0.00
        CHANNELS 3 Zrotation Yrotation Xrotation
        JOINT RightElbow
        {
            OFFSET -0.14763221144676208 -0.010762348771095276 -0.0019505452364683151
            CHANNELS 3 Zrotation Yrotation Xrotation
            JOINT RightWrist
            {
                OFFSET -0.1280568540096283 0.18471255898475647 -0.032591274939477444
                CHANNELS 3 Zrotation Yrotation Xrotation
                        End Site
                        {
                            OFFSET -0.10232135653495789 -0.09857296943664551 -0.16921570990234613
                        }
            }
        }
    }
}
MOTION
Frames: 33
Frame Time: 0.0333333
0 0 0 0 0 0 0 0 0 0 0 0 0 0 0 0 0 0 0 0 0 0 0 0
0 0 0 0 0 0 0.0 -0.0022922278680752584 0.008585730697596716 -2.564006812312307 -4.011187861072301 -0.24506396143760867 2.7440404033198824 0.4191189066332157 -1.3174837608730954 0.0 0.0022922278680752584 -0.008585730697596716 1.7174654078147213 -0.5898247543221657 0.6370799345189049 -0.7583831078259351 1.6929016168595368 -2.5605667602822884
0 0 0 0 0 0 0.0 0.0002687364658342517 -0.0003097273614045548 -0.0801076064650772 0.42747126618772313 0.5881222220702824 0.4563406256520821 -0.13504948081427415 -0.338855423735847 0.0 -0.0002687364658342517 0.0003097273614045548 0.05404666554073856 0.11651804179249581 1.3820255199566418 -1.0412847697798924 -0.9759305331992181 -1.0536917739802032
0 0 0 0 0 0 0.0 0.005130582732256528 -0.003157585360504811 2.7687810780279634 0.6954402876911132 0.5162589431010822 0.24534039390787044 -0.08082571566223606 0.14260453580509136 0.0 -0.005130582732256528 0.003157585360504811 -2.9643954434567306 0.829937461065569 1.527019662356448 -5.727588013831756 -1.0478414958049882 0.5362935024197562
0 0 0 0 0 0 0.0 -0.0037977222896259377 -0.00704499528566771 -1.8544154292061705 1.4768677468426077 0.9102891660950654 -0.7815364702691294 -0.4697158459645365 -0.5145547144277884 0.0 0.0037977222896259377 0.00704499528566771 2.0981964791586023 -0.27650139090382453 0.9792213403995333 1.2639123646436765 0.5590997119682726 -0.0020768554458729938
0 0 0 0 0 0 0.0 0.0003675277492689588 -0.004170880670464783 0.29259056173142994 0.9464603193776 0.6482231023324481 -0.0688688664251913 -0.13740470292842843 1.0705627081185263 0.0 -0.0003675277492689588 0.004170880670464783 -0.2918982132366139 0.2212087915173555 1.2094364781651947 -1.1422230504181243 -1.7288414175458868 -0.8925428908126101
0 0 0 0 0 0 0.0 0.0009614221935763112 -0.0153365481530372 0.6444593209061864 0.7197298351734034 0.7469812460728313 0.09731626114361802 -0.1733654145654171 0.6053829573866558 0.0 -0.0009614221935763112 0.0153365481530372 -1.2066017850239987 0.5127039706765117 0.8957513702933326 -4.424133397872115 -1.440251690701956 -0.5947661720054178
0 0 0 0 0 0 0.0 -0.04453556361522004 0.003845488142005138 -12.071308103610349 0.2701225063005097 1.5610697805562133 1.0842007646167993 -0.7870507253918504 0.8500895904119368 0.0 0.04453556361522004 -0.003845488142005138 7.702124085282314 0.5399456690911535 0.758293293464618 -1.988064703788563 -4.090629697322079 -1.951049675338707
0 0 0 0 0 0 0.0 -0.024393398228077956 0.004473442529913996 -5.081831615862484 -1.1096967608943373 0.347707499534085 1.823168285317509 0.17006543145876662 0.8667696619720395 0.0 0.024393398228077956 -0.004473442529913996 3.4710342410563158 0.04512780143603834 0.48892490937794975 0.8499231699145327 -7.181987912861356 -7.174803662500535
0 0 0 0 0 0 0.0 -0.007167756710742879 0.009799290843623965 -2.086659408260637 -0.1781719957395822 0.22764540705123437 0.2697324997094377 0.18084261787387845 0.8399497565056109 0.0 0.007167756710742879 -0.009799290843623965 3.143151897830691 -0.225462920492987 0.4383755467797741 0.9039927566510109 -0.13836207872398631 -2.8387175994570164
0 0 0 0 0 0 0.0 0.021085369441500745 0.0016031224067063476 3.2444964683374167 1.1324166951903578 0.6147811151601168 -1.4202381876711634 -0.12989782680755724 -0.15625563137041 0.0 -0.021085369441500745 -0.0016031224067063476 -1.898628398278717 -0.1958194509481217 0.2687588000183254 0.6185594558659524 0.13919980179815283 -0.7415211138939206
0 0 0 0 0 0 0.0 -0.020031021023463325 0.01503436692753013 -4.8958514135313855 0.2762072197582768 0.9227197838422576 0.9078208632889684 -0.3574810079914741 0.8163570955885184 0.0 0.020031021023463325 -0.01503436692753013 5.843828263966039 -0.3758707846522569 0.18373112686982296 3.961173959007027 -0.312511885907206 -1.9027293525666735
0 0 0 0 0 0 0.0 -0.10339666113443258 -0.005962450477760228 -8.13640254226857 1.44558845924238 0.33075692618351127 -3.9240156997505693 -0.324882567837804 0.8724139345962207 0.0 0.10339666113443258 0.005962450477760228 12.305523520712061 -0.3913675541808246 -0.464901081489252 4.569942410985789 2.093790341110921 -0.7556020514751012
0 0 0 0 0 0 0.0 -0.03511964393620559 0.00573573700763319 -2.4686586801291455 0.1533360872286451 -0.08637463221300123 -0.19528709802686528 -0.25572265863638677 -0.01666259963448624 0.0 0.03511964393620559 -0.00573573700763319 4.262320108756388 -0.5053278456153762 -1.1880329833207526 2.4480022237514305 -1.8749333542662683 -5.575211258562259
0 0 0 0 0 0 0.0 -0.430627733327583 0.02752313518528382 -13.451308954539073 2.0221190612117255 1.6701195131674247 -3.7032162848479597 -2.256314406159248 0.986016514905625 0.0 0.430627733327583 -0.02752313518528382 19.128590743604004 -0.2832352166651262 -0.9650514039047025 4.861731116245531 2.457678101647211 -2.701006848313149
0 0 0 0 0 0 0.0 -0.23649882640536646 0.023754327330458125 -4.685903006040958 -0.3422518202134057 -0.10570540081479152 -0.9484266852202197 -0.10849831596045334 0.3093123201083081 0.0 0.23649882640536646 -0.023754327330458125 4.802635553075022 0.35603823890712505 -0.07572075481521523 -0.525817157295803 0.4793841014032658 0.014912152983477256
0 0 0 0 0 0 0.0 -0.22659219333169034 0.01795630879047394 -1.2706350738261936 2.2224329332475605 0.7350631971193238 -3.619369438315978 -1.5362319817150194 0.6461291897192503 0.0 0.22659219333169034 -0.01795630879047394 3.723059818863292 0.14984530878405167 0.011733371746039722 0.0936330560262082 -0.4801789570687305 -1.400618541117339
0 0 0 0 0 0 0.0 -0.3010954506780905 0.014059842005416101 -1.8293648138701495 1.167770342496972 1.4526149864970392 -3.4321483617967736 -0.6591687777512973 1.1928091290458624 0.0 0.3010954506780905 -0.014059842005416101 7.541573839019621 -1.118545561301687 0.06206826826362288 6.426783366866129 2.345097051337895 -2.544755564758411
0 0 0 0 0 0 0.0 -0.8341778693239661 0.030071880856439748 -3.7890250301543507 0.41613098770558565 1.6225073355067465 -2.2398334831727524 -1.4889773483874578 2.5670188019706064 0.0 0.8341778693239661 -0.030071880856439748 5.708834935031938 0.6301757560499937 0.484141427881319 0.5903012652413722 0.5502565604527163 -0.6373876899051467
0 0 0 0 0 0 0.0 0.11317522815504333 0.0111519051731932 -2.7569816390057698 -0.9918548124021243 -0.3962897813206929 3.112557097534374 -0.004902855508717607 -0.09144829078548433 0.0 -0.11317522815504333 -0.0111519051731932 0.4140093267732503 0.15894091152873813 0.3490976735994451 -0.650668423497244 -1.106758350675907 -0.2582201236002817
0 0 0 0 0 0 0.0 -0.09609873314859385 0.00461749617153373 -1.623550305653664 -1.0098408087668531 -0.4447605283257907 0.8138301031978585 0.5651583345779869 -0.3760264656191392 0.0 0.09609873314859385 -0.00461749617153373 0.7458572426170988 -0.08721285808740475 -0.4969536910676169 -0.5805829351482714 -0.9649431986415102 -2.1798346187957662
0 0 0 0 0 0 0.0 0.11493994603170421 0.0016091382781624475 -0.5734856066505287 -0.099874311745765 -0.14766875250717604 0.941221485245336 -0.13680192930895174 -0.25776321860561957 0.0 -0.11493994603170421 -0.0016091382781624475 -1.0640927458316227 0.08169462181718501 -0.6385063843703449 -1.0393444333868445 -0.41651674197345656 -0.3628348111151709
0 0 0 0 0 0 0.0 -0.15258817024557203 0.004415127713194522 -1.4749666518052589 0.05644259335365831 0.8624909802886052 0.8436345969771857 -0.6553724884509364 1.3465394677217795 0.0 0.15258817024557203 -0.004415127713194522 0.9896697640647822 -0.04588427243183446 -0.5418369660755218 0.23880083851359757 0.4458426109792768 -0.794964149742718
0 0 0 0 0 0 0.0 0.2471512093921504 0.0009041686008401939 -0.23516829737994094 0.30070515882862026 -0.4611451020820141 1.4210958925821195 -0.5190767479244371 -0.37060456748565507 0.0 -0.2471512093921504 -0.0009041686008401939 -1.57783513969963 -0.2455621143259208 -1.8783591400277615 -1.8222484139311845 0.5369490583646552 -0.9110123896253555
0 0 0 0 0 0 0.0 -0.2796248116085138 0.0024338166088213598 -0.850700254836454 0.551645058486784 -0.4750436769051909 -2.188139722612629 -0.6793522615116032 -0.2536006048149613 0.0 0.2796248116085138 -0.0024338166088213598 1.2074233559378058 0.28814688455427984 -0.44496265915641686 -0.6327012157436442 -0.09946131906622924 -0.7231344345113726
0 0 0 0 0 0 0.0 -0.6091165768261391 -0.0013260713574112515 2.6705662827739456 2.1371405541928894 0.3844290849921066 -4.920113207745587 -2.155286749404766 1.1025871172197164 0.0 0.6091165768261391 0.0013260713574112515 1.3582445568389758 0.021935586242427974 -0.8110439414408184 0.40852719206285926 1.5628759432842259 -0.8028209849781476
0 0 0 0 0 0 0.0 -0.4243567309105387 -0.0005932425895309734 -1.100747182721184 -1.437228881412537 0.18855704086450586 2.30364365864666 -0.07539536727525586 0.5214231042959305 0.0 0.4243567309105387 0.0005932425895309734 0.3562292191495189 0.0965883485171517 -0.4255039681352706 1.477721894759025 1.5824788886544106 0.4827705346639135
0 0 0 0 0 0 0.0 -0.0776422700528201 -0.0036230926072065017 -0.9071498786685872 -0.1737398354844828 -0.27736258507631106 0.09289008787271413 -0.0440795412245194 -0.09056835807983887 0.0 0.0776422700528201 0.0036230926072065017 0.5398918241084267 -0.0122370210313818 -0.25226325304383224 -0.3429931045911019 0.9197653150307517 0.34461832734230313
0 0 0 0 0 0 0.0 0.05669551980091114 -0.0070138604651575065 -1.4291955375762928 -0.13570887662758224 -0.22978417562255515 0.1890598663260512 0.24697293478404703 0.004926397958827877 0.0 -0.05669551980091114 0.0070138604651575065 0.6883830740444559 -0.07071293011626523 -0.14170212885020916 -0.30014235038871107 0.23181069053425318 -0.16866555941139438
0 0 0 0 0 0 0.0 0.021320788414392666 -0.015961942393296624 -1.8567352144355738 -0.04231402611149093 -0.2566401462382828 -0.5726454568047501 0.39119828469288365 -0.051044413561488255 0.0 -0.021320788414392666 0.015961942393296624 1.3524118112612875 -0.1871371037833569 -0.19286650907479697 0.11075245577227655 0.879915103667166 -0.06319015276037732
0 0 0 0 0 0 0.0 0.19282099057023316 -0.014250358219207726 -1.4107574045932445 0.11811095731637522 -0.5958943758117137 -0.14127630838972394 0.3609979750093757 -0.3700633641037179 0.0 -0.19282099057023316 0.014250358219207726 0.42100041359222473 -0.029645260011754715 -0.1902610056228795 -1.0729962261703356 0.03503660754196147 0.044555640640282945
0 0 0 0 0 0 0.0 -0.07973591309384176 -0.006793510306174255 -0.27761699542652707 0.03605472404574783 0.09251603126945085 -0.03589272335777949 -0.42375883725930663 -0.07304068065310965 0.0 0.07973591309384176 0.006793510306174255 0.9523056684776172 -0.34661407996333793 -0.25376739870441156 2.4550834434284887 1.3044053889771234 0.11652629301432427
0 0 0 0 0 0 0.0 0.1521910093517107 -0.004910350329637936 -1.557013969601332 -0.5403368016621997 0.17462990349865848 2.2561091458836415 -0.3002618763884257 -0.22590746488816826 0.0 -0.1521910093517107 0.004910350329637936 0.9779318604170797 -0.45886627799608704 -0.05434638458530472 1.8137271054118589 2.2610108304297114 1.9319358891475389
